<svg data-name="Layer 1" xmlns="http://www.w3.org/2000/svg" viewBox="0 0 100.05 100">
    <path d="M49.92 100h-31A18.57 18.57 0 01.77 86.46a20.82 20.82 0 01-.74-5.39c0-20.66.1-41.31 0-61.97C-.06 8.67 7.85 1.73 14.59.46A24 24 0 0119.03 0h62.2a18.58 18.58 0 0118.8 19c0 20.69-.07 41.39 0 62.08a18.86 18.86 0 01-14.6 18.47 25.27 25.27 0 01-4.75.42c-10.26.03-20.51.03-30.76.03zM8.43 24v51a4.55 4.55 0 00.5.08c8.77 0 17.54 0 26.31-.08a18.93 18.93 0 0010.56-3.46 11.45 11.45 0 005-7.55 22.86 22.86 0 00.3-5.54c-.35-5.17-2.9-8.83-7.8-10.74l-1.2-.46c5.57-3.77 7.07-6.41 6.72-12.06-.25-4.17-1.9-7.53-5.91-9.39a17.48 17.48 0 00-7.24-1.78c-8.92-.11-17.84-.12-26.76-.16-.09.03-.24.07-.48.14zm82.53 39.72h-8.87c-1.83 4.38-7.6 5.71-11.88 4.23a8.14 8.14 0 01-5.18-8.88h24.34c2.37 0 2.38 0 2.34-2.34a23.59 23.59 0 00-1.87-9.19c-4.17-9.52-15-13.43-24.59-8.79-6.06 2.92-9.43 7.93-10.42 14.54a23.16 23.16 0 00.78 10.46c2.53 8 9.72 12.76 18.72 12.35a19.58 19.58 0 008.76-2.1c4.08-2.3 6.41-5.89 7.87-10.28z"/>
    <path d="M19.7 66.32v-14h7.55a67.47 67.47 0 017.26.26c3.46.44 5.39 2.92 5.49 6.59.12 3.85-1.48 6.06-5 6.92a6.12 6.12 0 01-1.46.25c-4.59-.01-9.17-.02-13.84-.02zm.01-21.81V32.73a7.79 7.79 0 01.78-.09h10.24a13.48 13.48 0 013.57.54c2.66.81 3.81 2.78 3.66 5.92a5.14 5.14 0 01-4.15 5.15 12.07 12.07 0 01-2.47.28H20.53c-.25.04-.5.01-.82-.02zm61.57 8H64.95c.17-4.75 3.68-7.92 8.59-7.83s7.8 3.1 7.74 7.83z"/>
</svg>
